<svg width="154" height="97" viewBox="0 0 154 97" fill="none" xmlns="http://www.w3.org/2000/svg">
<path d="M82.4207 32.3908C82.4207 35.2491 80.1433 37.5542 77.3127 37.6095H77.2158C74.3299 37.6095 71.9971 35.2768 71.9971 32.3908C71.9971 29.5049 74.3299 27.1859 77.2158 27.1859H77.3127C80.1433 27.2413 82.4207 29.5464 82.4207 32.3908Z" fill="#FF0000"/>
<path d="M88.2293 51.9481C88.2293 51.9481 86.0303 58.6005 78.9721 61.6479C77.9348 62.095 76.7362 62.095 75.6989 61.6479C68.6407 58.6005 66.4417 51.9481 66.4417 51.9481C69.4751 54.5943 73.403 56.111 75.6159 56.8118C76.7408 57.1668 77.9302 57.1668 79.0505 56.8118C81.268 56.111 85.1958 54.5943 88.2247 51.9481H88.2293Z" fill="#FF0000"/>
<path d="M78.5157 47.0653C78.1883 47.2958 77.8472 47.4341 77.4691 47.471C77.4691 47.471 77.4461 47.471 77.423 47.471C77.4 47.471 77.3723 47.471 77.3355 47.471H77.3124C77.3124 47.471 77.294 47.471 77.2801 47.471C77.2801 47.471 77.2709 47.471 77.2663 47.471C77.2617 47.471 77.2571 47.471 77.2525 47.471C77.2202 47.471 77.1879 47.471 77.151 47.4663C77.1464 47.4663 77.1418 47.4663 77.1372 47.4663C77.0957 47.4663 77.0542 47.4571 77.0127 47.4433C77.0035 47.4433 76.9943 47.4433 76.9897 47.4433C76.9805 47.4433 76.9712 47.4433 76.962 47.4387C76.6624 47.3834 76.3811 47.2543 76.1091 47.0653C56.5574 32.6631 77.3124 11.4286 77.3124 11.4286C77.3124 11.4286 98.0674 32.6631 78.5157 47.0653ZM82.8169 9.19269C80.9498 6.12231 79.1795 3.05193 77.3124 0C75.4453 3.05655 73.675 6.12231 71.8079 9.19269C67.5481 16.1955 61.8775 22.8618 62.002 31.4598C62.0435 34.7699 62.8779 38.0385 64.4362 40.9522C64.4362 40.9522 64.5053 41.0905 64.6344 41.3348C64.7036 41.4501 64.7912 41.6022 64.888 41.7728C64.9433 41.8558 65.0032 41.9572 65.0586 42.054C65.1554 42.2246 65.2845 42.409 65.4089 42.6072C65.4919 42.7501 65.5933 42.8931 65.704 43.0452C65.9483 43.3771 66.1742 43.7229 66.4232 44.0548C66.709 44.4328 67.0041 44.8063 67.3083 45.1705C67.6449 45.5716 67.9952 45.9634 68.3548 46.3415C68.7421 46.7472 69.1478 47.139 69.5627 47.5171C70.0053 47.9135 70.4617 48.2962 70.9319 48.6558C71.4022 49.0154 71.9323 49.3796 72.4625 49.7069C72.9927 50.0342 73.5689 50.3477 74.1498 50.6243C74.7307 50.9009 75.3669 51.1545 75.9939 51.3619C76.2244 51.4403 76.4595 51.5095 76.6946 51.574C76.879 51.6247 77.0681 51.6847 77.2617 51.6985C77.4415 51.7123 77.6075 51.6616 77.778 51.6155C78.1054 51.5279 78.4327 51.4265 78.7554 51.3204C79.3824 51.1084 79.9955 50.8548 80.5902 50.5644C81.1665 50.2832 81.7243 49.9743 82.2683 49.6331C82.8123 49.292 83.2964 48.9508 83.7851 48.5728C84.2738 48.1948 84.7071 47.8305 85.1451 47.4295C85.56 47.0514 85.9565 46.655 86.3437 46.2493C86.7033 45.8712 87.0445 45.4794 87.381 45.0829C87.6807 44.7187 87.9711 44.3499 88.2523 43.9718C88.4736 43.6722 88.6903 43.3679 88.8978 43.0636C89.013 42.9069 89.1098 42.7686 89.1928 42.6257C89.3173 42.4274 89.4464 42.243 89.5432 42.0724C89.5985 41.9756 89.6584 41.8742 89.7138 41.7912C89.8152 41.6206 89.8982 41.4639 89.9673 41.3533C90.0918 41.1135 90.1656 40.9706 90.1656 40.9706C91.7238 38.057 92.5583 34.7884 92.5997 31.4783C92.7288 22.8757 87.0537 16.214 82.7939 9.21113L82.8169 9.19269Z" fill="#FF0000"/>
<path d="M15.2181 74.3856H9.67605V90.4185H5.52702V74.3856H0V71.0026H15.2181V74.3856Z" fill="white"/>
<path d="M15.3912 77.3928C16.0183 77.0436 16.8556 76.7582 17.9032 76.5405C18.9507 76.3227 19.8481 76.2138 20.5916 76.2138C24.4703 76.2138 26.4077 78.155 26.4077 82.0412V90.4144H22.5591V88.398H22.5103C21.5641 89.9675 20.1823 90.756 18.3612 90.756C17.0508 90.756 15.9995 90.3806 15.2072 89.6334C14.4187 88.8862 14.0245 87.8686 14.0245 86.5807C14.0245 83.9223 15.609 82.3791 18.7743 81.9436L22.5854 81.4292C22.5854 79.8184 21.7443 79.0111 20.0659 79.0111C18.3875 79.0111 16.8518 79.5142 15.3912 80.5168V77.3965V77.3928ZM19.9683 84.1364C18.5077 84.3279 17.7755 84.9887 17.7755 86.1151C17.7755 86.6333 17.952 87.0501 18.3087 87.3692C18.6654 87.6884 19.1422 87.8461 19.743 87.8461C20.569 87.8461 21.2524 87.5532 21.7856 86.9675C22.3188 86.3817 22.5891 85.6571 22.5891 84.7859V83.7947L19.9683 84.1326V84.1364Z" fill="white"/>
<path d="M29.8206 90.4149V69.895H33.857V90.4149H29.8206Z" fill="white"/>
<path d="M37.8181 77.3928C38.4452 77.0436 39.2825 76.7582 40.3301 76.5405C41.3776 76.3227 42.275 76.2138 43.0185 76.2138C46.8971 76.2138 48.8346 78.155 48.8346 82.0412V90.4144H44.986V88.398H44.9372C43.991 89.9675 42.6092 90.756 40.7881 90.756C39.4777 90.756 38.4264 90.3806 37.6341 89.6334C36.8456 88.8862 36.4514 87.8686 36.4514 86.5807C36.4514 83.9223 38.0359 82.3791 41.2012 81.9436L45.0123 81.4292C45.0123 79.8184 44.1712 79.0111 42.4928 79.0111C40.8144 79.0111 39.2787 79.5142 37.8181 80.5168V77.3965V77.3928ZM42.3952 84.1364C40.9346 84.3279 40.2024 84.9887 40.2024 86.1151C40.2024 86.6333 40.3789 87.0501 40.7356 87.3692C41.0923 87.6884 41.5691 87.8461 42.1699 87.8461C42.9959 87.8461 43.6793 87.5532 44.2125 86.9675C44.7457 86.3817 45.016 85.6571 45.016 84.7859V83.7947L42.3952 84.1326V84.1364Z" fill="white"/>
<path d="M64.4926 83.6486V90.4185H60.3549V71.0026H67.0346C71.8632 71.0026 74.2813 73.0489 74.2813 77.1454C74.2813 79.1354 73.5529 80.7274 72.0923 81.929C70.6354 83.1267 68.8106 83.7012 66.6216 83.6524H64.4889L64.4926 83.6486ZM64.4926 74.2091V80.4759H66.2837C68.7167 80.4759 69.9295 79.417 69.9295 77.3031C69.9295 75.1891 68.728 74.2054 66.3212 74.2054H64.4926V74.2091Z" fill="white"/>
<path d="M85.6613 80.2237C85.1694 79.9383 84.5724 79.7994 83.8702 79.7994C82.9503 79.7994 82.2219 80.1486 81.685 80.8507C81.1443 81.5529 80.8777 82.5179 80.8777 83.7457V90.4142H76.83V76.5515H80.8777V79.1573H80.9265C81.5949 77.2612 82.8114 76.3112 84.5724 76.3112C85.0492 76.3112 85.4135 76.3638 85.6613 76.4727V80.2199V80.2237Z" fill="white"/>
<path d="M88.0458 77.3928C88.6728 77.0436 89.5101 76.7582 90.5577 76.5405C91.6053 76.3227 92.5027 76.2138 93.2461 76.2138C97.1248 76.2138 99.0623 78.155 99.0623 82.0412V90.4144H95.2136V88.398H95.1648C94.2224 89.9675 92.8369 90.756 91.0158 90.756C89.7054 90.756 88.654 90.3806 87.8618 89.6334C87.0733 88.8862 86.6753 87.8686 86.6753 86.5807C86.6753 83.9223 88.2598 82.3791 91.4251 81.9436L95.2362 81.4292C95.2362 79.8184 94.3951 79.0111 92.7167 79.0111C91.0383 79.0111 89.5026 79.5142 88.042 80.5168V77.3965L88.0458 77.3928ZM92.6228 84.1364C91.1622 84.3279 90.4301 84.9887 90.4301 86.1151C90.4301 86.6333 90.6065 87.0501 90.9632 87.3692C91.3199 87.6884 91.7968 87.8461 92.3976 87.8461C93.2236 87.8461 93.907 87.5532 94.4402 86.9675C94.9733 86.3817 95.2437 85.6571 95.2437 84.7859V83.7947L92.6228 84.1326V84.1364Z" fill="white"/>
<path d="M110.695 90.2529C110.083 90.5871 109.163 90.756 107.924 90.756C104.984 90.756 103.512 89.2091 103.512 86.1189V79.5743H101.229V76.5517H103.512V73.5066L107.537 72.3539V76.5517H110.695V79.5743H107.537V85.4167C107.537 86.8961 108.123 87.6358 109.29 87.6358C109.741 87.6358 110.21 87.5006 110.695 87.2341V90.2566V90.2529Z" fill="white"/>
<path d="M121.325 90.2529C120.713 90.5871 119.793 90.756 118.554 90.756C115.614 90.756 114.142 89.2091 114.142 86.1189V79.5743H111.859V76.5517H114.142V73.5066L118.167 72.3539V76.5517H121.325V79.5743H118.167V85.4167C118.167 86.8961 118.753 87.6358 119.92 87.6358C120.371 87.6358 120.84 87.5006 121.325 87.2341V90.2566V90.2529Z" fill="white"/>
<path d="M122.853 83.5469C122.853 81.264 123.536 79.4729 124.903 78.17C126.269 76.8671 128.106 76.2138 130.411 76.2138C132.716 76.2138 134.414 76.8559 135.724 78.1362C137.034 79.4204 137.692 81.1438 137.692 83.3066C137.692 85.5782 137.019 87.388 135.675 88.7322C134.331 90.0764 132.506 90.7485 130.208 90.7485C127.91 90.7485 126.161 90.1027 124.839 88.8111C123.513 87.5194 122.853 85.7622 122.853 83.5394V83.5469ZM126.953 83.4981C126.953 86.2653 128.079 87.6471 130.336 87.6471C132.593 87.6471 133.584 86.2278 133.584 83.3854C133.584 80.5431 132.495 79.3227 130.313 79.3227C129.251 79.3227 128.428 79.687 127.839 80.4116C127.249 81.1363 126.957 82.1651 126.957 83.4943L126.953 83.4981Z" fill="white"/>
<path d="M153.514 76.5518L147.799 91.6573C146.47 95.168 144.48 96.9215 141.832 96.9215C140.789 96.9215 139.978 96.8126 139.399 96.5948V93.3469C139.944 93.6548 140.541 93.8125 141.19 93.8125C142.294 93.8125 143.072 93.2793 143.522 92.2092L144.288 90.3919L138.686 76.5518H143.173L145.88 85.2366C146.049 85.7623 146.169 86.3518 146.244 87.0051H146.319C146.38 86.5621 146.515 85.9801 146.732 85.2629L149.503 76.5518H153.514Z" fill="white"/>
</svg>
